<svg width="68" height="68" viewBox="0 0 68 68" fill="none" xmlns="http://www.w3.org/2000/svg">
<circle cx="34" cy="34" r="34" fill="black" fill-opacity="0.2"/>
<path d="M36.5 16C36.5 14.6193 35.3807 13.5 34 13.5C32.6193 13.5 31.5 14.6193 31.5 16L36.5 16ZM32.2322 53.7678C33.2085 54.7441 34.7915 54.7441 35.7678 53.7678L51.6777 37.8579C52.654 36.8816 52.654 35.2986 51.6777 34.3223C50.7014 33.346 49.1184 33.346 48.1421 34.3223L34 48.4645L19.8579 34.3223C18.8816 33.346 17.2986 33.346 16.3223 34.3223C15.346 35.2986 15.346 36.8816 16.3223 37.8579L32.2322 53.7678ZM31.5 16L31.5 52L36.5 52L36.5 16L31.5 16Z" fill="white"/>
</svg>
